<?xml version="1.0" standalone="no"?>
<!DOCTYPE svg PUBLIC "-//W3C//DTD SVG 20010904//EN"
 "http://www.w3.org/TR/2001/REC-SVG-20010904/DTD/svg10.dtd">
<svg version="1.0" xmlns="http://www.w3.org/2000/svg"
 width="16.000000pt" height="16.000000pt" viewBox="0 0 16.000000 16.000000"
 preserveAspectRatio="xMidYMid meet">
<metadata>
Created by potrace 1.11, written by Peter Selinger 2001-2013
</metadata>
<g transform="translate(0.000000,16.000000) scale(0.002707,-0.002707)"
fill="#000000" stroke="none">
<path d="M3468 5375 c-2 -1 -37 -5 -78 -8 -41 -4 -84 -8 -95 -11 -11 -2 -40
-7 -64 -11 -254 -42 -664 -234 -901 -422 -147 -116 -207 -169 -326 -288 -177
-177 -208 -212 -328 -369 -121 -158 -235 -339 -333 -526 -31 -58 -60 -109 -65
-115 -5 -6 -69 -10 -151 -10 l-142 0 -1 -465 c0 -256 -3 -483 -7 -505 -7 -41
-16 -116 -22 -195 -10 -123 -5 -412 10 -490 2 -14 7 -49 10 -79 21 -175 120
-451 220 -611 31 -50 128 -174 161 -205 118 -113 119 -113 39 5 -97 143 -168
312 -216 515 -46 195 -56 328 -50 648 l1 67 579 0 c454 0 580 -3 583 -12 2 -7
4 -291 4 -630 -1 -408 2 -619 9 -621 5 -2 207 -3 448 -3 240 1 437 -1 437 -4
0 -20 -298 -165 -445 -217 -68 -24 -83 -28 -125 -37 -11 -3 -23 -7 -28 -9 -4
-3 -23 -8 -42 -11 -19 -4 -69 -12 -110 -20 -102 -19 -355 -19 -455 0 -159 29
-352 108 -454 185 -29 22 -55 39 -57 37 -7 -8 183 -184 236 -219 218 -142 428
-200 705 -194 83 2 159 5 170 8 11 2 40 8 65 12 105 16 258 63 393 119 565
234 1112 755 1471 1401 34 61 72 133 86 162 l25 52 147 1 147 0 4 493 c2 270
7 508 11 527 17 89 23 210 20 390 -2 107 -5 204 -8 216 -2 12 -7 45 -11 75 -8
73 -48 237 -80 334 -66 198 -191 404 -321 530 -73 70 -94 88 -94 83 0 -4 6
-13 13 -20 26 -27 106 -156 144 -233 78 -157 134 -336 159 -510 3 -22 8 -51
10 -65 8 -36 14 -439 8 -475 l-6 -30 -571 1 c-315 1 -575 2 -579 3 -5 0 -8
286 -8 634 l0 634 -441 0 c-242 1 -442 3 -445 5 -7 8 265 143 365 183 307 120
627 152 894 90 142 -33 257 -82 376 -163 35 -23 65 -41 67 -39 3 2 -35 42 -84
89 -170 164 -358 260 -592 302 -71 13 -274 28 -282 21z m-1174 -1277 c-1 -260
-2 -475 -3 -478 -2 -7 -741 -6 -741 1 0 19 255 420 280 439 3 3 19 23 35 45
39 53 101 129 150 185 54 61 269 280 275 280 3 0 5 -213 4 -472z m2048 -1830
c-11 -18 -32 -55 -48 -83 -81 -145 -254 -386 -378 -530 -75 -87 -288 -305
-298 -305 -5 0 -8 214 -8 475 l0 475 376 0 376 0 -20 -32z"/>
</g>
</svg>
